<?xml version="1.0" encoding="UTF-8"?>
<!-- Generated by Pixelmator Pro 3.7 -->
<svg width="1200" height="400" viewBox="0 0 1200 400" xmlns="http://www.w3.org/2000/svg" xmlns:xlink="http://www.w3.org/1999/xlink">
    <filter id="filter1" x="0" y="0" width="1200" height="400" filterUnits="userSpaceOnUse" primitiveUnits="userSpaceOnUse" color-interpolation-filters="sRGB">
        <feGaussianBlur stdDeviation="5"/>
        <feOffset dx="3.535534" dy="3.535534" result="offsetblur"/>
        <feFlood flood-color="#000000" flood-opacity="0.5"/>
        <feComposite in2="offsetblur" operator="in"/>
        <feMerge>
            <feMergeNode/>
            <feMergeNode in="SourceGraphic"/>
        </feMerge>
    </filter>
    <path id="Rounded-Rectangle" fill="#fcedda" fill-rule="evenodd" stroke="none" filter="url(#filter1)" d="M 412 306.701172 C 412 351.601288 448.398712 388 493.298828 388 L 705.701172 388 C 750.601318 388 787 351.601288 787 306.701172 L 787 94.298828 C 787 49.398712 750.601318 13 705.701172 13 L 493.298828 13 C 448.398712 13 412 49.398712 412 94.298828 Z"/>
    <linearGradient id="linearGradient1" x1="571.255447" y1="97.236173" x2="626.583794" y2="304.006468" gradientUnits="userSpaceOnUse">
        <stop offset="1e-05" stop-color="#fbad40" stop-opacity="1"/>
        <stop offset="0.15" stop-color="#fbad40" stop-opacity="1"/>
        <stop offset="0.74" stop-color="#ef473c" stop-opacity="1"/>
        <stop offset="1" stop-color="#ef473c" stop-opacity="1"/>
    </linearGradient>
    <path id="Path" fill="url(#linearGradient1)" stroke="none" d="M 590.979858 290.361298 C 590.979858 290.361298 572.538391 330.454407 533.606445 280.525848 C 533.606445 280.525848 518.975342 280.045288 498.258972 250.472275 C 492.856537 248.282257 488.121338 245.913971 484.149414 243.40007 C 486.432037 248.963455 490.235443 256.495117 493.419922 262.180237 C 500.244629 272.764923 502.702148 282.042572 502.380951 282.509216 C 502.17691 282.803253 499.847137 279.759369 496.410645 274.81781 C 488.410339 265.178955 473.252411 246.772842 470.226257 242.070724 C 469.283539 240.605392 468.746948 239.351837 468.464508 238.304337 C 466.108582 240.064102 464.955231 241.532242 464.955231 241.532242 C 462.545105 243.692429 473.536774 262.873932 481.992126 275.346344 C 492.943542 289.116547 496.146149 300.965576 495.557739 301.666809 C 495.146637 301.919373 491.33136 297.921326 485.785797 291.475525 C 472.526367 278.557007 447.428833 254.111847 442.565704 248.03952 C 437.17865 240.930084 440.822052 238.012207 440.822052 238.012207 L 465.799255 211.568558 C 465.780426 211.353607 465.761627 211.138672 465.957764 210.904907 L 457.053711 198.255157 C 456.296051 197.021896 456.145599 195.302307 456.658783 193.741272 C 457.190796 192.395157 458.386475 191.207596 460.106049 191.057144 L 474.824615 188.469864 C 475.375427 187.33873 475.926239 186.207565 476.691986 185.057602 L 470.469421 170.873688 C 469.692932 169.425476 469.972382 167.668289 470.71936 166.30336 C 471.466309 164.938461 472.91452 164.161972 474.437958 164.245285 L 489.653564 164.863449 C 490.419312 163.713486 491.203888 162.778473 491.988464 161.843445 L 488.484985 146.555267 C 488.138397 145.069443 488.632782 143.293457 489.632294 142.33963 C 490.827972 141.152039 492.294983 140.590515 493.856049 141.103729 L 508.456299 144.5914 C 509.47464 143.852509 510.474152 142.898712 511.277527 142.17865 L 510.764526 126.412262 C 510.847809 124.888824 511.575958 123.30896 512.809265 122.55127 C 514.023682 121.578674 515.743286 121.428223 517.108215 122.175171 L 530.663269 128.570007 C 531.915344 128.027283 532.933655 127.288422 533.970764 126.764465 L 536.504639 111.164703 C 536.802917 109.622467 537.78363 108.453705 539.231812 107.677216 C 540.483887 107.134491 542.241089 107.41394 543.391052 108.179688 L 555.685913 117.500488 C 556.723083 116.976563 557.993958 116.648773 559.264832 116.321014 L 564.472107 101.570282 C 565.004089 100.224182 566.199768 99.036621 567.685608 98.690033 C 569.171448 98.343445 570.732483 98.856659 571.705078 100.071106 L 582.019775 111.514496 L 585.888794 111.175995 L 593.825928 97.919189 C 594.572876 96.554291 596.002258 95.562836 597.525696 95.646179 C 599.049133 95.729492 600.414063 96.47641 601.190552 97.924652 L 609.057495 111.098328 C 610.365967 111.200439 611.693237 111.517517 612.786804 111.638428 L 623.042603 100.128113 C 624.238281 98.940552 625.705322 98.378998 627.247559 98.677246 C 628.789795 98.975525 629.977356 100.171173 630.538879 101.638184 L 635.724365 116.346039 C 637.051636 116.663086 638.164001 116.998962 639.276306 117.334808 L 651.477417 108.253448 C 652.691895 107.280823 654.411438 107.130371 655.776367 107.877319 C 657.122437 108.409332 658.310059 109.60498 658.460449 111.324585 L 660.88916 126.706787 C 662.020325 127.257599 663.170349 128.023376 664.301453 128.574188 L 677.821716 122.193085 C 679.269958 121.416595 680.793396 121.499908 682.177124 122.461823 C 683.345886 123.442505 684.122375 124.890747 684.039063 126.414185 L 683.673462 142.040863 C 684.627258 143.040375 685.562317 143.824921 686.497314 144.609512 L 701.121826 140.947479 C 702.607666 140.600922 704.168701 141.114105 705.356323 142.309784 C 706.31012 143.309296 706.675476 145.010071 706.377197 146.552322 L 702.945984 161.797424 C 703.684814 162.815735 704.638672 163.815262 705.377502 164.833572 L 720.499084 164.376999 C 722.003723 164.245331 723.368652 164.99231 724.126343 166.225571 C 725.117737 167.654984 725.268188 169.374573 724.52124 170.739487 L 718.416565 185.135513 C 718.940491 186.172638 719.483215 187.424728 720.007141 188.461838 L 734.962036 191.052124 C 736.504333 191.350388 737.673096 192.331085 738.234619 193.798126 C 738.796143 195.265137 738.731628 197.003525 737.750916 198.172302 L 729.11261 210.840668 C 729.206604 211.915405 729.496826 212.756393 729.786926 213.597366 L 756.405273 233.144455 C 756.405273 233.144455 760.500061 235.38533 756.391785 242.892319 C 752.853149 249.483109 733.77356 276.493744 723.528442 290.602234 C 719.382568 297.679352 716.515686 302.04541 716.066956 301.868103 C 715.384521 301.494629 716.537292 289.914337 724.557678 275.134094 C 730.345276 262.065369 737.503296 242.378937 734.754639 240.670059 C 734.754639 240.670059 734.007751 240.006104 732.592834 239.154541 C 732.339539 239.808441 732.01178 240.519226 731.591858 241.28804 C 728.950073 246.121323 715.732666 265.095825 708.757385 275.034698 C 705.760071 280.115723 703.727478 283.251312 703.551208 282.956116 C 703.274536 282.487213 705.432007 273.018097 711.390015 262.140503 C 715.015137 254.535126 719.562073 243.720398 720.891418 238.374771 C 717.506714 241.331238 713.112122 244.130005 707.846191 246.729004 C 694.820557 267.724335 669.115112 277.664398 669.115112 277.664398 C 628.951294 323.402344 602.608093 291.714111 602.608093 291.714111 C 630.096619 292.401337 643.764587 271.479492 643.764587 271.479492 C 614.061646 263.614685 602.989868 270.028687 602.989868 270.028687 C 603.893921 268.717224 604.791199 267.468628 605.681519 266.280579 L 602.572144 266.053101 L 602.58844 266.03067 C 601.128967 266.045593 599.663391 266.053101 598.192078 266.053101 C 597.521973 266.053101 596.853088 266.051514 596.185364 266.048431 L 596.188904 266.053101 L 592.342712 266.368164 C 593.227173 267.434448 594.116272 268.555756 595.009644 269.734192 C 595.009644 269.734192 579.84668 270.007385 553.618835 273.354187 C 553.618835 273.354187 569.123291 287.902435 590.979858 290.361298 Z M 533.511475 262.683777 L 533.511475 261.042053 C 533.563477 260.970459 533.623413 260.888428 533.691284 260.796631 C 529.741455 260.101685 525.921692 259.344849 522.245911 258.530487 C 525.227905 261.742645 528.343567 264.238525 531.420776 265.362885 C 531.420776 265.362885 532.147339 264.29303 533.511475 262.683777 Z M 671.405823 262.392944 C 673.781738 260.795959 675.986511 259.205658 678.032104 257.63269 C 673.475098 258.723999 668.675354 259.724121 663.661926 260.624054 L 663.661926 264.168457 C 663.683105 264.206116 663.693787 264.225525 663.693787 264.225525 L 671.405823 262.392944 Z M 473.924011 235.11615 C 473.924011 235.11615 473.924011 235.11615 473.924011 235.11615 C 473.924011 235.11615 473.924011 235.11615 473.924011 235.11615 Z"/>
    <mask id="mask1" maskUnits="userSpaceOnUse" maskContentUnits="userSpaceOnUse" mask-type="alpha">
        <linearGradient id="linearGradient2" x1="571.255447" y1="97.236173" x2="626.583794" y2="304.006468" gradientUnits="userSpaceOnUse">
            <stop offset="1e-05" stop-color="#fbad40" stop-opacity="1"/>
            <stop offset="0.15" stop-color="#fbad40" stop-opacity="1"/>
            <stop offset="0.74" stop-color="#ef473c" stop-opacity="1"/>
            <stop offset="1" stop-color="#ef473c" stop-opacity="1"/>
        </linearGradient>
        <path id="path1" fill="url(#linearGradient2)" stroke="none" d="M 590.979858 290.361298 C 590.979858 290.361298 572.538391 330.454407 533.606445 280.525848 C 533.606445 280.525848 518.975342 280.045288 498.258972 250.472275 C 492.856537 248.282257 488.121338 245.913971 484.149414 243.40007 C 486.432037 248.963455 490.235443 256.495117 493.419922 262.180237 C 500.244629 272.764923 502.702148 282.042572 502.380951 282.509216 C 502.17691 282.803253 499.847137 279.759369 496.410645 274.81781 C 488.410339 265.178955 473.252411 246.772842 470.226257 242.070724 C 469.283539 240.605392 468.746948 239.351837 468.464508 238.304337 C 466.108582 240.064102 464.955231 241.532242 464.955231 241.532242 C 462.545105 243.692429 473.536774 262.873932 481.992126 275.346344 C 492.943542 289.116547 496.146149 300.965576 495.557739 301.666809 C 495.146637 301.919373 491.33136 297.921326 485.785797 291.475525 C 472.526367 278.557007 447.428833 254.111847 442.565704 248.03952 C 437.17865 240.930084 440.822052 238.012207 440.822052 238.012207 L 465.799255 211.568558 C 465.780426 211.353607 465.761627 211.138672 465.957764 210.904907 L 457.053711 198.255157 C 456.296051 197.021896 456.145599 195.302307 456.658783 193.741272 C 457.190796 192.395157 458.386475 191.207596 460.106049 191.057144 L 474.824615 188.469864 C 475.375427 187.33873 475.926239 186.207565 476.691986 185.057602 L 470.469421 170.873688 C 469.692932 169.425476 469.972382 167.668289 470.71936 166.30336 C 471.466309 164.938461 472.91452 164.161972 474.437958 164.245285 L 489.653564 164.863449 C 490.419312 163.713486 491.203888 162.778473 491.988464 161.843445 L 488.484985 146.555267 C 488.138397 145.069443 488.632782 143.293457 489.632294 142.33963 C 490.827972 141.152039 492.294983 140.590515 493.856049 141.103729 L 508.456299 144.5914 C 509.47464 143.852509 510.474152 142.898712 511.277527 142.17865 L 510.764526 126.412262 C 510.847809 124.888824 511.575958 123.30896 512.809265 122.55127 C 514.023682 121.578674 515.743286 121.428223 517.108215 122.175171 L 530.663269 128.570007 C 531.915344 128.027283 532.933655 127.288422 533.970764 126.764465 L 536.504639 111.164703 C 536.802917 109.622467 537.78363 108.453705 539.231812 107.677216 C 540.483887 107.134491 542.241089 107.41394 543.391052 108.179688 L 555.685913 117.500488 C 556.723083 116.976563 557.993958 116.648773 559.264832 116.321014 L 564.472107 101.570282 C 565.004089 100.224182 566.199768 99.036621 567.685608 98.690033 C 569.171448 98.343445 570.732483 98.856659 571.705078 100.071106 L 582.019775 111.514496 L 585.888794 111.175995 L 593.825928 97.919189 C 594.572876 96.554291 596.002258 95.562836 597.525696 95.646179 C 599.049133 95.729492 600.414063 96.47641 601.190552 97.924652 L 609.057495 111.098328 C 610.365967 111.200439 611.693237 111.517517 612.786804 111.638428 L 623.042603 100.128113 C 624.238281 98.940552 625.705322 98.378998 627.247559 98.677246 C 628.789795 98.975525 629.977356 100.171173 630.538879 101.638184 L 635.724365 116.346039 C 637.051636 116.663086 638.164001 116.998962 639.276306 117.334808 L 651.477417 108.253448 C 652.691895 107.280823 654.411438 107.130371 655.776367 107.877319 C 657.122437 108.409332 658.310059 109.60498 658.460449 111.324585 L 660.88916 126.706787 C 662.020325 127.257599 663.170349 128.023376 664.301453 128.574188 L 677.821716 122.193085 C 679.269958 121.416595 680.793396 121.499908 682.177124 122.461823 C 683.345886 123.442505 684.122375 124.890747 684.039063 126.414185 L 683.673462 142.040863 C 684.627258 143.040375 685.562317 143.824921 686.497314 144.609512 L 701.121826 140.947479 C 702.607666 140.600922 704.168701 141.114105 705.356323 142.309784 C 706.31012 143.309296 706.675476 145.010071 706.377197 146.552322 L 702.945984 161.797424 C 703.684814 162.815735 704.638672 163.815262 705.377502 164.833572 L 720.499084 164.376999 C 722.003723 164.245331 723.368652 164.99231 724.126343 166.225571 C 725.117737 167.654984 725.268188 169.374573 724.52124 170.739487 L 718.416565 185.135513 C 718.940491 186.172638 719.483215 187.424728 720.007141 188.461838 L 734.962036 191.052124 C 736.504333 191.350388 737.673096 192.331085 738.234619 193.798126 C 738.796143 195.265137 738.731628 197.003525 737.750916 198.172302 L 729.11261 210.840668 C 729.206604 211.915405 729.496826 212.756393 729.786926 213.597366 L 756.405273 233.144455 C 756.405273 233.144455 760.500061 235.38533 756.391785 242.892319 C 752.853149 249.483109 733.77356 276.493744 723.528442 290.602234 C 719.382568 297.679352 716.515686 302.04541 716.066956 301.868103 C 715.384521 301.494629 716.537292 289.914337 724.557678 275.134094 C 730.345276 262.065369 737.503296 242.378937 734.754639 240.670059 C 734.754639 240.670059 734.007751 240.006104 732.592834 239.154541 C 732.339539 239.808441 732.01178 240.519226 731.591858 241.28804 C 728.950073 246.121323 715.732666 265.095825 708.757385 275.034698 C 705.760071 280.115723 703.727478 283.251312 703.551208 282.956116 C 703.274536 282.487213 705.432007 273.018097 711.390015 262.140503 C 715.015137 254.535126 719.562073 243.720398 720.891418 238.374771 C 717.506714 241.331238 713.112122 244.130005 707.846191 246.729004 C 694.820557 267.724335 669.115112 277.664398 669.115112 277.664398 C 628.951294 323.402344 602.608093 291.714111 602.608093 291.714111 C 630.096619 292.401337 643.764587 271.479492 643.764587 271.479492 C 614.061646 263.614685 602.989868 270.028687 602.989868 270.028687 C 603.893921 268.717224 604.791199 267.468628 605.681519 266.280579 L 602.572144 266.053101 L 602.58844 266.03067 C 601.128967 266.045593 599.663391 266.053101 598.192078 266.053101 C 597.521973 266.053101 596.853088 266.051514 596.185364 266.048431 L 596.188904 266.053101 L 592.342712 266.368164 C 593.227173 267.434448 594.116272 268.555756 595.009644 269.734192 C 595.009644 269.734192 579.84668 270.007385 553.618835 273.354187 C 553.618835 273.354187 569.123291 287.902435 590.979858 290.361298 Z M 533.511475 262.683777 L 533.511475 261.042053 C 533.563477 260.970459 533.623413 260.888428 533.691284 260.796631 C 529.741455 260.101685 525.921692 259.344849 522.245911 258.530487 C 525.227905 261.742645 528.343567 264.238525 531.420776 265.362885 C 531.420776 265.362885 532.147339 264.29303 533.511475 262.683777 Z M 671.405823 262.392944 C 673.781738 260.795959 675.986511 259.205658 678.032104 257.63269 C 673.475098 258.723999 668.675354 259.724121 663.661926 260.624054 L 663.661926 264.168457 C 663.683105 264.206116 663.693787 264.225525 663.693787 264.225525 L 671.405823 262.392944 Z M 473.924011 235.11615 C 473.924011 235.11615 473.924011 235.11615 473.924011 235.11615 C 473.924011 235.11615 473.924011 235.11615 473.924011 235.11615 Z"/>
    </mask>
    <g id="Group" mask="url(#mask1)">
        <path id="strut" fill="#fcedda" fill-rule="evenodd" stroke="none" d="M 708.274048 220.67128 C 706.721558 221.672882 704.843567 222.524231 702.640015 223.225357 C 700.436523 223.926483 697.95752 224.277039 695.203125 224.277039 C 689.994751 224.277039 686.126099 222.94368 683.597046 220.276886 C 681.067993 217.610107 679.803467 213.985596 679.803467 209.403244 L 679.803467 191.299286 L 671.427612 191.299286 L 671.427612 183.111176 L 679.803467 183.111176 L 679.803467 174.472351 L 691.672485 173.045074 L 691.672485 183.111176 L 704.518066 183.111176 L 703.353638 191.299286 L 691.672485 191.299286 L 691.672485 209.403244 C 691.672485 211.381424 692.123169 212.796173 693.024658 213.647537 C 693.926086 214.498901 695.365845 214.924576 697.344055 214.924576 C 698.746338 214.924576 700.029602 214.755554 701.19397 214.417511 C 702.358337 214.079468 703.403748 213.647537 704.3302 213.121704 Z M 639.163452 183.111176 L 639.163452 210.417358 C 639.163452 212.345459 639.520264 213.672577 640.233887 214.398743 C 640.947571 215.124908 641.942871 215.487976 643.219971 215.487976 C 644.446899 215.487976 645.673889 215.099869 646.900879 214.323624 C 648.127808 213.547363 649.154419 212.495697 649.980774 211.168579 L 649.980774 183.111176 L 661.849731 183.111176 L 661.849731 223 L 651.483154 223 L 650.957336 218.342545 C 649.605164 220.295685 647.827332 221.773026 645.623779 222.774643 C 643.420288 223.776245 641.116577 224.277039 638.712769 224.277039 C 634.856567 224.277039 631.989502 223.156509 630.11145 220.915421 C 628.233459 218.674316 627.294434 215.663284 627.294434 211.882202 L 627.294434 183.111176 Z M 582.597961 223 L 582.597961 215.037262 L 587.856384 215.037262 L 587.856384 190.998795 L 582.597961 190.998795 L 582.597961 183.111176 L 596.908325 183.111176 L 599.086853 192.088043 C 600.51416 188.657532 602.335754 186.10347 604.551819 184.425781 C 606.767883 182.748093 609.478455 181.909256 612.683594 181.909256 C 614.035767 181.909256 615.237671 182.015671 616.289368 182.228516 C 617.341064 182.44136 618.330139 182.73558 619.256592 183.111176 L 617.040527 199.787857 L 609.603638 199.787857 L 609.603638 192.426086 C 607.350037 192.826721 605.371887 194.047424 603.669189 196.088196 C 601.966431 198.128967 600.651855 200.639206 599.725342 203.618988 L 599.725342 215.037262 L 607.612976 215.037262 L 607.612976 223 Z M 573.057678 220.67128 C 571.505188 221.672882 569.627197 222.524231 567.423706 223.225357 C 565.220154 223.926483 562.741211 224.277039 559.986755 224.277039 C 554.778442 224.277039 550.90979 222.94368 548.380737 220.276886 C 545.851624 217.610107 544.587158 213.985596 544.587158 209.403244 L 544.587158 191.299286 L 536.211243 191.299286 L 536.211243 183.111176 L 544.587158 183.111176 L 544.587158 174.472351 L 556.456116 173.045074 L 556.456116 183.111176 L 569.301697 183.111176 L 568.137329 191.299286 L 556.456116 191.299286 L 556.456116 209.403244 C 556.456116 211.381424 556.90686 212.796173 557.808289 213.647537 C 558.709717 214.498901 560.149536 214.924576 562.127686 214.924576 C 563.529968 214.924576 564.813232 214.755554 565.9776 214.417511 C 567.141968 214.079468 568.187378 213.647537 569.113892 213.121704 Z M 508.078735 215.788467 C 510.056885 215.788467 511.653198 215.475464 512.867615 214.849457 C 514.082092 214.22345 514.689331 213.284454 514.689331 212.032455 C 514.689331 211.181091 514.451416 210.467453 513.975647 209.891525 C 513.499878 209.315598 512.585938 208.764725 511.233765 208.238892 C 509.881592 207.713043 507.878418 207.087036 505.224152 206.36087 C 501.568298 205.384308 498.594818 203.982086 496.30365 202.154144 C 494.012451 200.326218 492.866882 197.646957 492.866882 194.116287 C 492.866882 190.560577 494.350494 187.618408 497.317749 185.289673 C 500.285034 182.960922 504.57309 181.79657 510.182098 181.79657 C 513.737793 181.79657 516.836487 182.253555 519.47821 183.167511 C 522.119934 184.081482 524.404846 185.239578 526.332947 186.64183 L 521.600342 193.628006 C 519.947693 192.601349 518.169861 191.781311 516.266846 191.167816 C 514.36377 190.554337 512.448242 190.247589 510.520142 190.247589 C 506.71402 190.247589 504.811005 191.274231 504.811005 193.327515 C 504.811005 194.003601 505.055145 194.585785 505.543427 195.074066 C 506.031708 195.562347 506.951904 196.063141 508.304077 196.576477 C 509.65625 197.089798 511.634399 197.722046 514.238586 198.473267 C 516.817749 199.199417 519.065063 200.038254 520.980591 200.989777 C 522.896179 201.941315 524.379822 203.212082 525.431519 204.802124 C 526.483154 206.392181 527.009033 208.489273 527.009033 211.093445 C 527.009033 213.998108 526.145142 216.433228 524.417358 218.398895 C 522.689575 220.364548 520.398438 221.835632 517.543884 222.812195 C 514.68927 223.788773 511.559326 224.277039 508.153839 224.277039 C 504.297668 224.277039 500.892242 223.726166 497.9375 222.624405 C 494.982758 221.522629 492.466248 220.070328 490.387909 218.267426 L 496.359985 211.581726 C 497.912476 212.783661 499.671509 213.785248 501.637177 214.586533 C 503.602814 215.387817 505.75 215.788467 508.078735 215.788467 Z"/>
    </g>
</svg>
